<?xml version="1.0" encoding="utf-8"?>
<!-- Generator: Adobe Illustrator 25.0.0, SVG Export Plug-In . SVG Version: 6.00 Build 0)  -->
<svg version="1.1" id="qwerty" xmlns="http://www.w3.org/2000/svg" x="0px" y="0px"
	 viewBox="0 0 1024 1024" style="enable-background:new 0 0 1024 1024;" xml:space="preserve">
<style type="text/css">
	.st0{fill:#DB2300;}
	.st1{fill:none;}
	.st2{fill:#77B4FF;}
	.st3{font-family:'v_CCWildButNotCrazy';}
	.st4{font-size:496.7711px;}
	.st5{font-size:142px;}
	.st6{fill:#FFFFFF;}
	.st7{font-size:148.5314px;}
	.st8{fill:#FFFFFF;stroke:#000000;stroke-miterlimit:10;}
	.cls-1 {
        fill: #78b5ff;
      }

      .cls-1, .cls-2 {
        fill-rule: evenodd;
      }

      .cls-2 {
        fill: #fff;
      }
</style>
	<g>
	<rect x="0.5" y="0.5" class="st0" width="1023" height="1023"/>
		<path d="M1023,1v1022H1V446.63V1H1023 M1024,0H0v446.63V1024h1024V0L1024,0z"/>
</g>
	<g>
  <path id="Manga" class="cls-1"
		d="M473.312,431.036q-0.482-5.328-2.908-32.943t-3.391-43.479q-0.97-15.865-.969-34.032,0-8.961.969-33.913,0.242-8.476,2.059-27.733t1.819-29.672q-12.84-13.563-44.085-14.533a86.65,86.65,0,0,0-17.924,1.695q-9.207,13.082-12.478,24.829T388.05,282.8q-13.81,34.155-24.709,58.981t-21.8,47.476q-10.9,22.647-23.5,47.476T288.981,494.5q-23.012-41.42-42.146-95.191-5.334-14.293-14.05-41.181-1.942-5.57-10.3-28.579t-12.108-35.971a251.642,251.642,0,0,1-6.419-29.19q-2.667-17.678-4.6-21.434t-10.173-4.723q-1.453-.483-4.847-1.213t-7.99-1.939a109.715,109.715,0,0,0-11.386-.969q-15.747,0-24.585,8.964t-9.327,22.77a642.514,642.514,0,0,1-6.3,73.028q-5.328,37.422-14.9,90.472t-14.29,86.594A621.194,621.194,0,0,0,89.874,586.3q0,10.9,6.175,17.684t16.835,6.782a68.632,68.632,0,0,0,9.207.483,70.424,70.424,0,0,0,7.508.969q9.2,0,16.954-8.477,8-19.863,7.994-30.761-1.212-12.592-1.212-24.706a217.446,217.446,0,0,1,2.3-31.974q2.3-15.5,5.936-33.545t7.994-39.849a369.234,369.234,0,0,0,5.812-37.543q2.178-25.914,10.416-29.309,9.2,27.375,21.678,56.8t22.284,51.837q9.807,22.406,17.561,44.691a328.084,328.084,0,0,1,12.354,46.507q9.69,11.868,25.675,11.868,11.868,0,29.309-7.269,12.6-14.775,19.38-26.52t20.588-40.7q13.8-28.945,28.1-56.316,5.085-10.413,17.2-36.21t18.893-40.818q2.909,19.139,5.45,48.082t4.24,54.258q1.695,25.314,3.874,55.227t3.877,47.353q3.391,14.534,20.346,14.533,3.39,0,13.806-2.179,11.385-2.661,15.866-6.781t4.483-17.928h0.483Q478.4,495.466,473.312,431.036h0Zm117.01,138.377q-4.444-11.645-8.51-23.705t-9.3-28.631q-5.236-16.572-7.648-24.015a5.436,5.436,0,0,0-2.585-2.584,7.677,7.677,0,0,0-3.479-.93,11.916,11.916,0,0,0-4.342,1,11.128,11.128,0,0,0-3.721,2.24q-6.065,9.441-9.991,16.951T529.855,532.3q-6.96,15.057-7.924,17.055-5.721,11.853-10.2,22.981t-8.958,24.29a6.338,6.338,0,0,0-.482,2.274,5.743,5.743,0,0,0,2.894,5,11.568,11.568,0,0,0,6.477,1.9q5.029,0,7.167-3.376a42.254,42.254,0,0,0,1.137-4.893,32.72,32.72,0,0,1,1.275-5.065,27.919,27.919,0,0,1,2.411-4.72,194.389,194.389,0,0,1,24.049-7.924,226.086,226.086,0,0,1,26.323-5.444,43.565,43.565,0,0,1,4.135,9.337q1.584,5.065,2.929,9.268a29.049,29.049,0,0,0,3.962,7.925q1.308,1.928,4.479,1.929a11.452,11.452,0,0,0,7.166-2.791,9.325,9.325,0,0,0,3.859-6.511Q594.767,581.059,590.322,569.413ZM562.9,556.423q-4.584,1.344-9.2,2.378-5.375,1.171-12.989,3.549t-9.475,2.377a123.451,123.451,0,0,1,3.618-12.266,88.782,88.782,0,0,1,5.547-11.852q11.163-20.259,14.815-23.429a47.54,47.54,0,0,1,3.584,7.993q1.377,4.068,4.789,14.85t5.2,14.85h-0.137Q567.478,555.08,562.9,556.423Zm139.126-65.015a11.329,11.329,0,0,0-5.547-1.309,10.989,10.989,0,0,0-6.271,1.757,5.666,5.666,0,0,0-2.619,5q0.069,4.548.207,12.3T688,521.728q0.067,5.168.448,13.3t0.379,11.922a99.277,99.277,0,0,1-2,19.776q-8.614-6.89-13.437-10.922t-8.854-7.993a113.749,113.749,0,0,1-7.959-8.717q-3.928-4.755-8.269-11.163-1.654-2.481-3.032-4.824t-3.342-5.478q-1.965-3.135-2.791-4.376-1.034-1.72-4.031-8.3t-4.445-7.959q-0.552-.551-4.065-0.551a9.08,9.08,0,0,0-2.722.379q-1.207.38-3.274,1.24t-2.2.93a11.637,11.637,0,0,0-3.617,2.274,5.956,5.956,0,0,0-.724,3.515q0.138,4.067.827,11.473t0.9,10.233q0.207,2.826.344,8.475v5.789q0,11.922-1.343,26.564t-1.344,23.946q0,5.237.138,8.2a4.236,4.236,0,0,0,2.136,3.721,9.2,9.2,0,0,0,5.1,1.378,8.431,8.431,0,0,0,5.409-1.723,6.2,6.2,0,0,0,2.171-5.168q-0.412-3.238-.689-7.1t-0.344-8.2q-0.071-4.341-.207-9.578,0-1.308-.069-3.583t-0.069-3.17q0-4.684.207-8.131t0.792-8.51q0.585-5.065,1-9.062,3.446,1.723,8.889,7.925,5.583,6.408,10.991,11.921t13.093,13.23q7.683,7.719,14.023,14.471a50.868,50.868,0,0,0,9.234,7.683,39.583,39.583,0,0,0,9.509,4.858,5.414,5.414,0,0,0,1.516.345,19.846,19.846,0,0,0,3.583-1.171q3.515-1.793,3.514-8.2-0.482-10.4-.689-19.983T702.4,548.292q-0.071-13.541-.138-22.223a147.051,147.051,0,0,1,1.1-16.676,136.282,136.282,0,0,0,1.1-14.47h0.138A4.446,4.446,0,0,0,702.023,491.408Zm119.659,41.139a34.412,34.412,0,0,0-6.305.654q-3.48.656-8.614,1.861t-6.374,1.481q-4.617.966-9.3,1.826T780.3,540.4q-6.1,1.173-10.4,2.343a55.319,55.319,0,0,0-7.477,2.55,6.432,6.432,0,0,0-1.654,4.754,14.967,14.967,0,0,0,1.585,6.581,9.277,9.277,0,0,0,3.859,4.445,49.3,49.3,0,0,0,8.545-.9q3.651-.758,9.3-2.515t9.957-2.722a56.1,56.1,0,0,1,10.164-1.172,78.046,78.046,0,0,1-3.824,9.027,30.98,30.98,0,0,1-5.892,8.752q-15.16,14.539-32.869,14.539a42.866,42.866,0,0,1-13.988-2.411,19.076,19.076,0,0,1-11.1-8.924q-3.445-6.3-3.445-17.33a42.285,42.285,0,0,1,4.341-16.056,58.1,58.1,0,0,1,28.08-28.528q10.3-4.823,19.26-4.824a23.931,23.931,0,0,1,8.889,1.585,22.449,22.449,0,0,0,5,2.757,39.072,39.072,0,0,1,7.684,4.685,4.086,4.086,0,0,0,2.963,1.31q2.825,0,5.719-3.515a17.241,17.241,0,0,0,3.721-7.649,18.566,18.566,0,0,0,.276-2.274q0-7.785-13.093-11.852-8.615-2.963-13.988-2.963a27.089,27.089,0,0,0-8.2,1.24,91.568,91.568,0,0,0-36.935,15.436A72.332,72.332,0,0,0,727.553,527.1a69.916,69.916,0,0,0-6.718,15.366,106.8,106.8,0,0,0-4.1,16.332,34.3,34.3,0,0,0-.483,5.788q0,12.472,8.752,25.289a24.2,24.2,0,0,0,8.338,7.753A67.015,67.015,0,0,0,746.5,602.42a46.779,46.779,0,0,0,12.266,1.585,60.1,60.1,0,0,0,6.891-.414,64.1,64.1,0,0,0,22.154-6.649,60.951,60.951,0,0,0,20.224-16.366,102.515,102.515,0,0,0,8.51-12.679,77.349,77.349,0,0,0,6.03-13.024,22.669,22.669,0,0,1,1.309-3.377,7.284,7.284,0,0,1,1.93-2.136q2.825-2.135,2.825-7.786a16.145,16.145,0,0,0-2-7.994h0.137a10.078,10.078,0,0,0-5.1-1.033h0Zm97.4,36.866q-4.444-11.645-8.51-23.705t-9.3-28.631q-5.236-16.572-7.648-24.015a5.436,5.436,0,0,0-2.585-2.584,7.677,7.677,0,0,0-3.479-.93,11.916,11.916,0,0,0-4.342,1,11.128,11.128,0,0,0-3.721,2.24q-6.065,9.441-9.991,16.951T858.617,532.3q-6.96,15.057-7.924,17.055-5.721,11.853-10.2,22.981t-8.958,24.29a6.338,6.338,0,0,0-.482,2.274,5.743,5.743,0,0,0,2.894,5,11.568,11.568,0,0,0,6.477,1.9q5.03,0,7.167-3.376a42.254,42.254,0,0,0,1.137-4.893A32.606,32.606,0,0,1,850,592.462a27.844,27.844,0,0,1,2.411-4.72,194.389,194.389,0,0,1,24.049-7.924,226.086,226.086,0,0,1,26.323-5.444,43.565,43.565,0,0,1,4.135,9.337q1.584,5.065,2.928,9.268a29.08,29.08,0,0,0,3.963,7.925q1.308,1.928,4.479,1.929a11.452,11.452,0,0,0,7.166-2.791,9.325,9.325,0,0,0,3.859-6.511Q923.528,581.059,919.084,569.413Zm-27.425-12.99q-4.584,1.344-9.2,2.378-5.375,1.171-12.989,3.549T860,564.727a123.451,123.451,0,0,1,3.618-12.266,88.782,88.782,0,0,1,5.547-11.852q11.163-20.259,14.815-23.429a47.54,47.54,0,0,1,3.584,7.993q1.377,4.068,4.789,14.85t5.2,14.85h-0.137Q896.24,555.08,891.659,556.423Z"/>
		<path id="cutter" class="cls-2"
			  d="M294.444,690.492q-5.886-3.414-17.439-3.778a50.323,50.323,0,0,0-18.71,3.742,73.272,73.272,0,0,0-18.056,10.5,94.668,94.668,0,0,0-15.768,15.695,72.14,72.14,0,0,0-11.735,21.108,68.591,68.591,0,0,0-4.032,22.924,60.4,60.4,0,0,0,3.27,19.619,39.666,39.666,0,0,0,7.7,13.769,28.6,28.6,0,0,0,11.662,7.847,47.833,47.833,0,0,0,16.385,2.507,70.6,70.6,0,0,0,16.13-2.507,101.273,101.273,0,0,0,31.172-14.423q1.308-.943,3.742-3.015a44.435,44.435,0,0,1,3.742-2.943,4.567,4.567,0,0,0,2.325-3.778q0-1.527-2.034-4.869a11.279,11.279,0,0,0-7.339-5.231,15.966,15.966,0,0,0-3.27-.581,4.874,4.874,0,0,0-3.415,1.671,67.216,67.216,0,0,1-9.7,7.883A64.681,64.681,0,0,1,267.05,783.1a31.3,31.3,0,0,1-11.771,2.58,40.408,40.408,0,0,1-17.693-3.779,25.919,25.919,0,0,1-12.025-11.7,27.152,27.152,0,0,1-3.124-12.934q0-1.67.29-5.231a56.53,56.53,0,0,1,10.391-19.691,78.734,78.734,0,0,1,16.93-15.986,57.9,57.9,0,0,1,18.092-8.792q4.142-.289,5.741-0.29,11.116,0,15.622,5.958a4.566,4.566,0,0,0,3.923,1.889,8.591,8.591,0,0,0,5.014-2,17.745,17.745,0,0,0,4.469-4.832,10.008,10.008,0,0,0,1.78-5.232,5.426,5.426,0,0,0-.291-1.453Q300.328,693.908,294.444,690.492Zm117.746,1.6a7.522,7.522,0,0,0-4.4-1.236,11.991,11.991,0,0,0-5.74,1.526,11.615,11.615,0,0,0-4.5,4.287,36.644,36.644,0,0,0-.581,7.484q0,3.487.436,13.079t0.436,14.75q0,21.581-.727,30.954-6.9,8.139-20.526,13.442a71.743,71.743,0,0,1-26.049,5.3,38.326,38.326,0,0,1-8.938-.944q-7.629-1.962-7.629-19.909,0-5.812.654-12.534t2.18-18.274q1.526-11.554,1.671-12.5,0.437-3.777.872-7.339t0.727-7.121a15.63,15.63,0,0,0,.581-4q0-3.851-2.761-4.578a8.687,8.687,0,0,0-2.689-.508,12.791,12.791,0,0,0-6.067,1.562q-2.943,1.563-3.6,3.088a37.782,37.782,0,0,0-2.652,10.064q-0.981,6.5-2.143,17.62a387.684,387.684,0,0,0-2.979,43.451q0,4.288.145,5.958,0.145,1.962.327,4.8t0.509,5.449a44.841,44.841,0,0,0,.908,5.014,18.6,18.6,0,0,0,1.526,4.214q2.543,4.869,10.9,6.249a28.739,28.739,0,0,0,5.013.436,38.365,38.365,0,0,0,8.429-.945q4.214-.942,13.588-3.487,27.391-7.7,36.621-9.664a5.362,5.362,0,0,1,2.216,3.233q0.834,2.506,1.562,4.578t1.889,2.143a8.3,8.3,0,0,0,4,1.018q5.667,0,8.356-10.391,0.144-1.671.145-5.086,0-2.979-.363-10.136t-0.509-11.226q-0.147-4.069-.145-10.754,0-5.3.145-9.41t0.618-12.861q0.471-8.754.654-13.224t0.181-8.392a101.157,101.157,0,0,0-.581-11.626h0.145A4.243,4.243,0,0,0,412.19,692.091Zm104.232,3.56q0-7.7-4.577-7.7a38.141,38.141,0,0,0-6.394-.509,58.727,58.727,0,0,0-8.393.582q-4.032.582-14.314,2.361T463.6,693.4a293.359,293.359,0,0,0-37.2,8.066,6.924,6.924,0,0,0-2.435,3.342,22.612,22.612,0,0,0-.544,5.886,13.453,13.453,0,0,0,1.525,5.667q1.527,3.2,3.27,3.561a29.077,29.077,0,0,0,5.813-.509q2.469-.507,6.794-1.744t7.23-1.816a33.089,33.089,0,0,1,6.466-.582,31.476,31.476,0,0,1,3.561.146q-1.019,12.135-1.018,27.393,0,6.249.218,20.163t0.218,21.544q0,5.74-.29,17.947,1.6,4.65,6.249,4.651a15.449,15.449,0,0,0,4.65-.872q3.851-1.237,4.65-2.107t1.453-4.8q-1.961-10.171-1.961-31.825,0-14.678.872-30.118t2.107-25.105a37.376,37.376,0,0,1,9.845-2.18q5.776-.581,13.188-1.271a59.676,59.676,0,0,0,10.754-1.708q4.8-1.452,6.83-7.048a12.67,12.67,0,0,0,.581-4.432h0Zm87.484,0q0-7.7-4.578-7.7a38.123,38.123,0,0,0-6.394-.509,58.713,58.713,0,0,0-8.392.582q-4.034.582-14.314,2.361T551.082,693.4a293.336,293.336,0,0,0-37.2,8.066,6.921,6.921,0,0,0-2.434,3.342,22.6,22.6,0,0,0-.545,5.886,13.456,13.456,0,0,0,1.526,5.667q1.525,3.2,3.27,3.561a29.091,29.091,0,0,0,5.813-.509q2.469-.507,6.793-1.744t7.23-1.816a33.107,33.107,0,0,1,6.467-.582,31.444,31.444,0,0,1,3.56.146q-1.018,12.135-1.017,27.393,0,6.249.218,20.163t0.218,21.544q0,5.74-.291,17.947,1.6,4.65,6.249,4.651a15.455,15.455,0,0,0,4.651-.872q3.851-1.237,4.65-2.107t1.453-4.8q-1.962-10.171-1.962-31.825,0-14.678.872-30.118t2.107-25.105a37.394,37.394,0,0,1,9.846-2.18q5.777-.581,13.188-1.271a59.676,59.676,0,0,0,10.754-1.708q4.8-1.452,6.83-7.048a12.67,12.67,0,0,0,.581-4.432h0Zm84.65,74.841q0-5.232-5.522-5.232a128,128,0,0,0-14.932,3.706q-6.287,2.034-19.292,6.612-18.165,6.395-27.683,8.283a49.047,49.047,0,0,1-.291-5.449q0.363-14.458,2.688-18.747a39.1,39.1,0,0,1,8.284-5.05,81.482,81.482,0,0,1,9.482-3.705q4.686-1.489,11.953-3.561t12.061-3.6q2.251-.724,5.159-1.671t5.087-1.744a24.385,24.385,0,0,0,3.923-1.816q3.707-2.034,4.287-9.664a32.936,32.936,0,0,0,.291-3.56q0-4.5-3.125-4.5a71.972,71.972,0,0,0-13.841,2.288q-7.449,1.926-19.837,6.068t-13.042,4.287q-4.8,1.526-9.955,2.979-1.162-1.38-1.163-5.014,0-.8.073-2.18t0.182-2.688q0.108-1.308.181-2.18,0.654-7.194,1.962-10.1,5.232-2.325,10.318-4.069t9.773-3.015q4.686-1.27,11.262-2.834t11.009-2.58a24.2,24.2,0,0,1,4.722-.653,14.561,14.561,0,0,0,4.106-.654,5.539,5.539,0,0,0,2.507-2.253,9.949,9.949,0,0,0,1.453-4.941,8.319,8.319,0,0,0-2.18-5.667,8.638,8.638,0,0,0-4.941-2.979,94.341,94.341,0,0,0-14.5,1.089q-7.012,1.09-12.279,2.4t-16.422,4.287q-11.154,2.981-16.6,4.142a14.318,14.318,0,0,0-5.958,9.082,32.634,32.634,0,0,0-.291,3.416,47.658,47.658,0,0,0,.872,7.52,47.38,47.38,0,0,1,.872,7.375,19.23,19.23,0,0,1-.29,2.834q-0.147,5.232-.727,15.767t-0.581,13.515q0.144,2.109.145,6.612,0,8.357-1.235,29.573a18.179,18.179,0,0,0,2.107,9.228q2.106,3.633,4.5,4.65a52.522,52.522,0,0,0,15.876-2.615q7.811-2.543,19.946-7.884t18.31-7.375a99.829,99.829,0,0,1,12.643-3.415q5.45-1.235,7.775-8.647a21.273,21.273,0,0,0,.872-5.667h0Zm95.694-.146q-8.211-5.45-17.22-10.39,9.735-7.194,14.822-11.444a61.23,61.23,0,0,0,9.737-10.5,40.119,40.119,0,0,0,6.685-14.387,50.6,50.6,0,0,0,.872-10.535,23.265,23.265,0,0,0-1.272-7.666,18.639,18.639,0,0,0-3.488-6.213,11.08,11.08,0,0,0-4.9-3.415,82.9,82.9,0,0,0-16.6-3.778,172.776,172.776,0,0,0-19.582-.945h-3.27q-2.253,0-7.157-.181t-8.756-.182a86.9,86.9,0,0,0-12.933.8q-9.156,1.308-14.751,2.471a7.479,7.479,0,0,0-2.833,2.507,7.318,7.318,0,0,0-1.454,4.541,8.556,8.556,0,0,0-.508,2.834q0,3.561,4.941,10.1-0.654,19.111-.872,27.975-0.073,2.179-.182,4.977t-0.182,5.74q-0.072,2.943-.072,4.324,0,3.416.181,6.466t0.582,8.066q0.4,5.013.545,8.937v11.481q0,7.774,1.162,11.335,1.453,3.705,6.249,3.705a11.438,11.438,0,0,0,8.647-4.141,8.751,8.751,0,0,0,.581-3.27,23.843,23.843,0,0,0-.509-3.851q-0.509-2.688-.653-4.214a36.477,36.477,0,0,1-.437-5.959,46.812,46.812,0,0,1,.582-7.266q6.1-1.015,19.473-4.359a157.682,157.682,0,0,1,25.649,9.773,212.056,212.056,0,0,1,26.449,16.312,4.789,4.789,0,0,0,2.688.872q2.761,0,4.65-3.561a16.926,16.926,0,0,0,1.89-8.065,12.4,12.4,0,0,0-1.744-6.975H801.4Q792.461,775.8,784.25,770.346Zm-11.008-36.294q-5.559,4.833-16.24,10.572-2.544,1.381-12.5,5.668-13.371,5.667-23.179,6.394a80.737,80.737,0,0,1-1.235-14.895q0-4,.327-11.227t0.327-11.371q0-3.487-.146-5.086,10.608-5.232,25.141-5.232,5.232,0,13.66.545t12.353,0.545q11.623,4.36,11.625,10.245a6.052,6.052,0,0,1-.436,2.107v-0.145A47.321,47.321,0,0,1,773.242,734.052Z"/>
</g>
	<g>
	<path class="st8" d="M385.14,409.69c29.61,0,35.44,0.41,54.84,0.17c13.72-0.17,10.03-1.17,10.43,11.92
		c0.3,9.77,1.49,8.65-9.44,8.65c-10.43,0-9.94-0.01-19.87,0c-10.04,0.01-9.94,0-14.9,0c-12.64,0-0.5,0-18.88,0
		c-26.42,0-9.44,0-26.83,0c-3.82,0-5.16,0.12-5.16-10.81c0-4.3-0.55-9.94,2.98-9.94C366.27,409.69,375.88,409.69,385.14,409.69z"/>
</g>
	<path class="st6" d="M683.9,503.37l40.89-23.85l132.91-77.41l10.22-3.89l5.84-5.36l1.95-4.87c0,0,0.49-16.35,0-16.7
	c-0.49-0.34,0-6.67,0-6.67l2.92-8.76l5.84-9.25l9.25-9.25l7.3-5.84l12.17-7.3l10.22-3.89l7.79-1.95l5.73-0.49h9.28l4.47,0.97
	l7.3,2.92l4.87,3.89l4.87,5.84l5.36,7.3c0,0,2.92,5.84,2.92,6.33c0,0.49-0.49,6.33-0.49,6.33s-2.92,6.33-3.41,6.82
	c-0.49,0.49-6.33,6.33-6.33,6.33s-9.74,7.79-10.22,7.79c-0.49,0-37.49,21.42-37.49,21.42L744.75,499.47l-8.28,2.92
	c0,0-9.74,2.92-10.71,2.92s-9.25,1.95-9.25,1.95l-6.82,0.49h-7.13l-6.5-0.49l-7.79-1.95l-4.38-1.29V503.37z"/>
	<polygon class="st6" points="683.9,338.82 819.73,416.71 841.15,404.05 760.33,351.48 736.96,336.38 727.23,334.44 699.79,334.44
	684.39,337.84 "/>
	<path class="st6" d="M857.7,438.62l26.29,15.09c0,0,4.87,2.92,5.36,2.92s5.36,4.87,5.36,4.87l2.43,5.36l-0.49,15.09v7.3l2.92,10.22
	l4.38,6.82l6.82,6.82l8.76,5.84l5.84,2.43l8.76,1.95h10.71l7.79-2.43l9.74-7.79l4.38-10.22l1.46-13.14l-2.92-9.25l-6.82-9.74
	l-14.12-9.25l-13.14-6.82l-54.04-28.24L857.7,438.62z"/>
	<g>
	<path class="st8" d="M493.67,409.63c29.61,0,35.44,0.41,54.84,0.17c13.72-0.17,10.03-1.17,10.43,11.92
		c0.3,9.77,1.49,8.65-9.44,8.65c-10.43,0-9.94-0.01-19.87,0c-10.04,0.01-9.94,0-14.9,0c-12.64,0-0.5,0-18.88,0
		c-26.42,0-9.44,0-26.83,0c-3.82,0-5.16,0.12-5.16-10.81c0-4.3-0.55-9.94,2.98-9.94C474.8,409.63,484.41,409.63,493.67,409.63z"/>
</g>
	<g>
	<path class="st8" d="M603.96,409.63c29.61,0,35.44,0.41,54.84,0.17c13.72-0.17,10.03-1.17,10.43,11.92
		c0.3,9.77,1.49,8.65-9.44,8.65c-10.43,0-9.94-0.01-19.87,0c-10.04,0.01-9.94,0-14.9,0c-12.64,0-0.5,0-18.88,0
		c-26.42,0-9.44,0-26.83,0c-3.82,0-5.16,0.12-5.16-10.81c0-4.3-0.55-9.94,2.98-9.94C585.08,409.63,594.69,409.63,603.96,409.63z"/>
</g>
	<g>
	<path class="st8" d="M278.08,409.63c29.61,0,35.44,0.41,54.84,0.17c13.72-0.17,10.03-1.17,10.43,11.92
		c0.3,9.77,1.49,8.65-9.44,8.65c-10.43,0-9.94-0.01-19.87,0c-10.04,0.01-9.94,0-14.9,0c-12.64,0-0.5,0-18.88,0
		c-26.42,0-9.44,0-26.83,0c-3.82,0-5.16,0.12-5.16-10.81c0-4.3-0.55-9.94,2.98-9.94C259.2,409.63,268.81,409.63,278.08,409.63z"/>
</g>
	<g>
	<path class="st8" d="M168.79,409.63c29.61,0,35.44,0.41,54.84,0.17c13.72-0.17,10.03-1.17,10.43,11.92
		c0.3,9.77,1.49,8.65-9.44,8.65c-10.43,0-9.94-0.01-19.87,0c-10.04,0.01-9.94,0-14.9,0c-12.64,0-0.5,0-18.88,0
		c-26.42,0-9.44,0-26.83,0c-3.82,0-5.16,0.12-5.16-10.81c0-4.3-0.55-9.94,2.98-9.94C149.91,409.63,159.52,409.63,168.79,409.63z"/>
</g>
	<g>
	<path class="st8" d="M53.54,409.56c29.81,0,35.67,0.41,55.19,0.17c13.81-0.17,10.09-1.18,10.5,12c0.31,9.83,1.5,8.71-9.5,8.71
		c-10.5,0-10-0.01-20,0c-10.11,0.01-10,0-15,0c-12.72,0-0.5,0-19,0c-26.59,0-9.5,0-27,0c-3.84,0-5.2,0.12-5.2-10.88
		c0-4.33-0.55-10,3-10C34.54,409.56,44.22,409.56,53.54,409.56z"/>
</g>
</svg>
