<?xml version="1.0" encoding="utf-8"?>
<!-- Generator: Adobe Illustrator 25.0.0, SVG Export Plug-In . SVG Version: 6.00 Build 0)  -->
<svg version="1.1" id="Слой_1" xmlns="http://www.w3.org/2000/svg" x="0px" y="0px"
	 viewBox="0 0 1024 1024" style="enable-background:new 0 0 1024 1024;" xml:space="preserve">
<style type="text/css">
	.st0{fill:#DB2300;}
	.st1{fill:none;}
	.st2{fill:#77B4FF;}
	.st3{font-family:'v_CCWildButNotCrazy';}
	.st4{font-size:496.7711px;}
	.st5{font-size:142px;}
	.st6{fill:#FFFFFF;}
	.st7{font-size:148.5314px;}
	.st8{fill:#FFFFFF;stroke:#000000;stroke-miterlimit:10;}
</style>
	<g>
	<rect x="0.5" y="0.5" class="st0" width="1023" height="1023"/>
		<path d="M1023,1v1022H1V446.63V1H1023 M1024,0H0v446.63V1024h1024V0L1024,0z"/>
</g>
	<g id="буква">
	<rect x="71" y="219.3" class="st1" width="435.05" height="401.39"/>
		<text transform="matrix(1 0 0 1 71 602.791)" class="st2 st3 st4">m</text>
		<polygon class="st1" points="1000,734 503.06,734.65 503.06,645.71 1000,644.71 	"/>
		<text transform="matrix(1 0 0 1 506.1299 602.9609)" class="st2 st3 st5">anga</text>
		<text transform="matrix(1 0 0 1 204.999 804.7686)" class="st6 st3 st7">Cutter</text>
</g>
	<g>
	<path class="st8" d="M385.14,409.69c29.61,0,35.44,0.41,54.84,0.17c13.72-0.17,10.03-1.17,10.43,11.92
		c0.3,9.77,1.49,8.65-9.44,8.65c-10.43,0-9.94-0.01-19.87,0c-10.04,0.01-9.94,0-14.9,0c-12.64,0-0.5,0-18.88,0
		c-26.42,0-9.44,0-26.83,0c-3.82,0-5.16,0.12-5.16-10.81c0-4.3-0.55-9.94,2.98-9.94C366.27,409.69,375.88,409.69,385.14,409.69z"/>
</g>
	<path class="st6" d="M683.9,503.37l40.89-23.85l132.91-77.41l10.22-3.89l5.84-5.36l1.95-4.87c0,0,0.49-16.35,0-16.7
	c-0.49-0.34,0-6.67,0-6.67l2.92-8.76l5.84-9.25l9.25-9.25l7.3-5.84l12.17-7.3l10.22-3.89l7.79-1.95l5.73-0.49h9.28l4.47,0.97
	l7.3,2.92l4.87,3.89l4.87,5.84l5.36,7.3c0,0,2.92,5.84,2.92,6.33c0,0.49-0.49,6.33-0.49,6.33s-2.92,6.33-3.41,6.82
	c-0.49,0.49-6.33,6.33-6.33,6.33s-9.74,7.79-10.22,7.79c-0.49,0-37.49,21.42-37.49,21.42L744.75,499.47l-8.28,2.92
	c0,0-9.74,2.92-10.71,2.92s-9.25,1.95-9.25,1.95l-6.82,0.49h-7.13l-6.5-0.49l-7.79-1.95l-4.38-1.29V503.37z"/>
	<polygon class="st6" points="683.9,338.82 819.73,416.71 841.15,404.05 760.33,351.48 736.96,336.38 727.23,334.44 699.79,334.44
	684.39,337.84 "/>
	<path class="st6" d="M857.7,438.62l26.29,15.09c0,0,4.87,2.92,5.36,2.92s5.36,4.87,5.36,4.87l2.43,5.36l-0.49,15.09v7.3l2.92,10.22
	l4.38,6.82l6.82,6.82l8.76,5.84l5.84,2.43l8.76,1.95h10.71l7.79-2.43l9.74-7.79l4.38-10.22l1.46-13.14l-2.92-9.25l-6.82-9.74
	l-14.12-9.25l-13.14-6.82l-54.04-28.24L857.7,438.62z"/>
	<g>
	<path class="st8" d="M493.67,409.63c29.61,0,35.44,0.41,54.84,0.17c13.72-0.17,10.03-1.17,10.43,11.92
		c0.3,9.77,1.49,8.65-9.44,8.65c-10.43,0-9.94-0.01-19.87,0c-10.04,0.01-9.94,0-14.9,0c-12.64,0-0.5,0-18.88,0
		c-26.42,0-9.44,0-26.83,0c-3.82,0-5.16,0.12-5.16-10.81c0-4.3-0.55-9.94,2.98-9.94C474.8,409.63,484.41,409.63,493.67,409.63z"/>
</g>
	<g>
	<path class="st8" d="M603.96,409.63c29.61,0,35.44,0.41,54.84,0.17c13.72-0.17,10.03-1.17,10.43,11.92
		c0.3,9.77,1.49,8.65-9.44,8.65c-10.43,0-9.94-0.01-19.87,0c-10.04,0.01-9.94,0-14.9,0c-12.64,0-0.5,0-18.88,0
		c-26.42,0-9.44,0-26.83,0c-3.82,0-5.16,0.12-5.16-10.81c0-4.3-0.55-9.94,2.98-9.94C585.08,409.63,594.69,409.63,603.96,409.63z"/>
</g>
	<g>
	<path class="st8" d="M278.08,409.63c29.61,0,35.44,0.41,54.84,0.17c13.72-0.17,10.03-1.17,10.43,11.92
		c0.3,9.77,1.49,8.65-9.44,8.65c-10.43,0-9.94-0.01-19.87,0c-10.04,0.01-9.94,0-14.9,0c-12.64,0-0.5,0-18.88,0
		c-26.42,0-9.44,0-26.83,0c-3.82,0-5.16,0.12-5.16-10.81c0-4.3-0.55-9.94,2.98-9.94C259.2,409.63,268.81,409.63,278.08,409.63z"/>
</g>
	<g>
	<path class="st8" d="M168.79,409.63c29.61,0,35.44,0.41,54.84,0.17c13.72-0.17,10.03-1.17,10.43,11.92
		c0.3,9.77,1.49,8.65-9.44,8.65c-10.43,0-9.94-0.01-19.87,0c-10.04,0.01-9.94,0-14.9,0c-12.64,0-0.5,0-18.88,0
		c-26.42,0-9.44,0-26.83,0c-3.82,0-5.16,0.12-5.16-10.81c0-4.3-0.55-9.94,2.98-9.94C149.91,409.63,159.52,409.63,168.79,409.63z"/>
</g>
	<g>
	<path class="st8" d="M53.54,409.56c29.81,0,35.67,0.41,55.19,0.17c13.81-0.17,10.09-1.18,10.5,12c0.31,9.83,1.5,8.71-9.5,8.71
		c-10.5,0-10-0.01-20,0c-10.11,0.01-10,0-15,0c-12.72,0-0.5,0-19,0c-26.59,0-9.5,0-27,0c-3.84,0-5.2,0.12-5.2-10.88
		c0-4.33-0.55-10,3-10C34.54,409.56,44.22,409.56,53.54,409.56z"/>
</g>
</svg>
